<svg xmlns="http://www.w3.org/2000/svg" 
  xmlns:xlink="http://www.w3.org/1999/xlink" viewBox="0 0 290.61 290.61">
  <defs>
    <style>.cls-1,.cls-8{fill:none;}.cls-2,.cls-9{fill:#8dc63f;}.cls-3{fill:#fff;}.cls-4{font-size:9.81px;font-family: Serrano;}.cls-4,.cls-5{fill:#474250;font-weight:700;}.cls-5{font-size:7.23px;font-family:SerranoPro-Bold, Serrano Pro;}.cls-6{opacity:0.35;}.cls-7{clip-path:url(#clip-path);}.cls-8,.cls-9{stroke:#fff;stroke-miterlimit:10;}.cls-8{stroke-width:3px;}.cls-9{stroke-width:1.5px;}</style>
    <clipPath id="clip-path">
      <circle id="SVGID" class="cls-1" cx="142.5" cy="142.5" r="58.83"/>
    </clipPath>
  </defs>
  <title>API Developer 01</title>
  <g id="Layer_2" data-name="Layer 2">
    <g id="Layer_7" data-name="Layer 7">
      <circle id="SVGID-2" data-name="SVGID" class="cls-2" cx="142.58" cy="142.42" r="92.06"/>
      <circle id="SVGID-3" data-name="SVGID" class="cls-3" cx="142.58" cy="142.5" r="81.14"/>
      <circle id="SVGID-4" data-name="SVGID" class="cls-2" cx="142.58" cy="142.42" r="61.71"/>
      <circle id="SVGID-5" data-name="SVGID" class="cls-1" cx="142.58" cy="142.42" r="58.83"/>
      <text class="cls-4" transform="translate(103.65 86.94) rotate(-31.73)">A</text>
      <text class="cls-4" transform="matrix(0.9, -0.43, 0.43, 0.9, 110.26, 82.89)">P</text>
      <text class="cls-4" transform="translate(116.2 80.09) rotate(-21.59)">I</text>
      <text class="cls-4" transform="translate(119.35 78.85) rotate(-18.87)"></text>
      <text class="cls-4" transform="translate(122.12 77.8) rotate(-14.33)">D</text>
      <text class="cls-4" transform="matrix(0.99, -0.14, 0.14, 0.99, 129.53, 75.94)">E</text>
      <text class="cls-4" transform="matrix(1, -0.04, 0.04, 1, 136.03, 74.97)">V</text>
      <text class="cls-4" transform="translate(143.36 74.69) rotate(3.52)">E</text>
      <text class="cls-4" transform="matrix(0.99, 0.15, -0.15, 0.99, 149.93, 75.1)">L</text>
      <text class="cls-4" transform="translate(155.55 75.9) rotate(14.59)">O</text>
      <text class="cls-4" transform="translate(163.57 78.04) rotate(20.83)">P</text>
      <text class="cls-4" transform="matrix(0.9, 0.44, -0.44, 0.9, 169.7, 80.37)">E</text>
      <text class="cls-4" transform="matrix(0.85, 0.53, -0.53, 0.85, 175.6, 83.28)">R</text>
      <text class="cls-5" transform="translate(181.59 87.15) rotate(35.8)"></text>
      <text class="cls-5" transform="translate(182.69 87.95) rotate(36.96)"></text>
      <text class="cls-5" transform="translate(183.8 88.78) rotate(38.14)"></text>
      <g class="cls-6">
        <g class="cls-7">
          <line class="cls-8" x1="152.76" y1="1.06" x2="1.06" y2="152.76"/>
          <line class="cls-8" x1="157.16" y1="5.46" x2="5.46" y2="157.16"/>
          <line class="cls-8" x1="161.56" y1="9.86" x2="9.86" y2="161.56"/>
          <line class="cls-8" x1="165.96" y1="14.26" x2="14.26" y2="165.96"/>
          <line class="cls-8" x1="170.36" y1="18.66" x2="18.66" y2="170.36"/>
          <line class="cls-8" x1="174.76" y1="23.06" x2="23.06" y2="174.76"/>
          <line class="cls-8" x1="179.16" y1="27.46" x2="27.46" y2="179.16"/>
          <line class="cls-8" x1="183.56" y1="31.86" x2="31.86" y2="183.56"/>
          <line class="cls-8" x1="187.96" y1="36.26" x2="36.26" y2="187.96"/>
          <line class="cls-8" x1="192.37" y1="40.66" x2="40.66" y2="192.37"/>
          <line class="cls-8" x1="196.77" y1="45.06" x2="45.06" y2="196.77"/>
          <line class="cls-8" x1="201.17" y1="49.46" x2="49.46" y2="201.17"/>
          <line class="cls-8" x1="205.57" y1="53.86" x2="53.86" y2="205.57"/>
          <line class="cls-8" x1="209.97" y1="58.26" x2="58.26" y2="209.97"/>
          <line class="cls-8" x1="214.37" y1="62.66" x2="62.66" y2="214.37"/>
          <line class="cls-8" x1="218.77" y1="67.07" x2="67.07" y2="218.77"/>
          <line class="cls-8" x1="223.55" y1="71.84" x2="71.84" y2="223.55"/>
          <line class="cls-8" x1="227.95" y1="76.24" x2="76.24" y2="227.95"/>
          <line class="cls-8" x1="232.35" y1="80.64" x2="80.64" y2="232.35"/>
          <line class="cls-8" x1="236.75" y1="85.04" x2="85.04" y2="236.75"/>
          <line class="cls-8" x1="241.15" y1="89.44" x2="89.44" y2="241.15"/>
          <line class="cls-8" x1="245.55" y1="93.85" x2="93.85" y2="245.55"/>
          <line class="cls-8" x1="249.95" y1="98.25" x2="98.25" y2="249.95"/>
          <line class="cls-8" x1="254.35" y1="102.65" x2="102.65" y2="254.35"/>
          <line class="cls-8" x1="258.75" y1="107.05" x2="107.05" y2="258.75"/>
          <line class="cls-8" x1="263.15" y1="111.45" x2="111.45" y2="263.15"/>
          <line class="cls-8" x1="267.55" y1="115.85" x2="115.85" y2="267.55"/>
          <line class="cls-8" x1="271.95" y1="120.25" x2="120.25" y2="271.95"/>
          <line class="cls-8" x1="276.35" y1="124.65" x2="124.65" y2="276.35"/>
          <line class="cls-8" x1="280.75" y1="129.05" x2="129.05" y2="280.75"/>
          <line class="cls-8" x1="285.15" y1="133.45" x2="133.45" y2="285.15"/>
          <line class="cls-8" x1="289.55" y1="137.85" x2="137.85" y2="289.55"/>
        </g>
      </g>
      <polygon class="cls-9" points="163.9 201 163.9 188.95 142.6 200.17 121.26 188.95 121.26 200.97 142.6 212.62 163.9 201"/>
      <path class="cls-3" d="M148.51,128.46l-16.18,9.4.94,3.21h17a8.79,8.79,0,0,1,4.3-6.24,8.18,8.18,0,0,1,5.77-1.05,8.76,8.76,0,1,1-10.08,10h-17l-.86,3.3,16,9.31a8.76,8.76,0,1,1,3.81,13.73,8.51,8.51,0,0,1-4.92-4.62c-.89-2-.92-3.21-.22-6.8l-16.09-9.34a11.1,11.1,0,0,1-16.62,1.16,11.25,11.25,0,0,1-.33-15.48,11.13,11.13,0,0,1,16.76.58l16.31-9.47a8.84,8.84,0,0,1,.54-7.47,8.49,8.49,0,0,1,4.56-3.94,8.76,8.76,0,1,1-3.8,13.73ZM122.2,151a8.45,8.45,0,1,0-8.34-8.5A8.38,8.38,0,0,0,122.2,151ZM161.41,162a6.05,6.05,0,1,0-6.32,6A6.09,6.09,0,0,0,161.41,162Zm-12.1-39a6.05,6.05,0,1,0,6.13-6.07A6.07,6.07,0,0,0,149.31,122.93Zm9.62,25.58a6.09,6.09,0,1,0-6.06-6.11A6,6,0,0,0,158.93,148.51Z"/>
      <path class="cls-3" d="M122.2,151a8.45,8.45,0,1,1,8.43-8.35A8.38,8.38,0,0,1,122.2,151Z"/>
      <path class="cls-3" d="M161.41,162a6.05,6.05,0,1,1-6-6.18A6.08,6.08,0,0,1,161.41,162Z"/>
      <path class="cls-3" d="M149.31,122.93a6.05,6.05,0,1,1,12.1,0,6.05,6.05,0,1,1-12.1,0Z"/>
      <path class="cls-3" d="M158.93,148.51a6.09,6.09,0,1,1,6.06-6.09A6.09,6.09,0,0,1,158.93,148.51Z"/>
    </g>
  </g>
</svg>
