<svg xmlns="http://www.w3.org/2000/svg" 
  xmlns:xlink="http://www.w3.org/1999/xlink" viewBox="0 0 290.61 290.61">
  <defs>
    <style>.cls-1,.cls-9{fill:none;}.cls-2{fill:#ec008c;}.cls-10,.cls-3{fill:#27aae1;}.cls-4{fill:#fff;}.cls-5{font-size:9.81px;font-family:Gotham-Bold, Gotham;}.cls-5,.cls-6{fill:#474250;font-weight:700;}.cls-6{font-size:7.23px;font-family:SerranoPro-Bold, Serrano Pro;}.cls-7{opacity:0.5;}.cls-8{clip-path:url(#clip-path);}.cls-10,.cls-9{stroke:#fff;stroke-miterlimit:10;}.cls-9{stroke-width:3px;}.cls-10{stroke-width:1.5px;}</style>
    <clipPath id="clip-path">
      <circle id="SVGID" class="cls-1" cx="142.5" cy="142.5" r="58.83"/>
    </clipPath>
  </defs>
  <title>Asset 172</title>
  <g id="Layer_2" data-name="Layer 2">
    <g id="Layer_7" data-name="Layer 7">
      <rect class="cls-2" x="226.5" y="216.53" width="0.71" height="0.71"/>
      <circle id="SVGID-2" data-name="SVGID" class="cls-3" cx="142.58" cy="142.42" r="92.06"/>
      <circle id="SVGID-3" data-name="SVGID" class="cls-4" cx="142.58" cy="142.5" r="81.14"/>
      <circle id="SVGID-4" data-name="SVGID" class="cls-3" cx="142.58" cy="142.42" r="61.71"/>
      <circle id="SVGID-5" data-name="SVGID" class="cls-1" cx="142.58" cy="142.42" r="58.83"/>
      <text class="cls-5" transform="matrix(0.5, -0.87, 0.87, 0.5, 81.04, 113.58)">W</text>
      <text class="cls-5" transform="matrix(0.6, -0.8, 0.8, 0.6, 86.6, 104.14)">E</text>
      <text class="cls-5" transform="matrix(0.68, -0.73, 0.73, 0.68, 90.56, 98.89)">B</text>
      <text class="cls-5" transform="translate(95.44 93.75) rotate(-42.88)"></text>
      <text class="cls-5" transform="translate(97.6 91.66) rotate(-38.88)">F</text>
      <text class="cls-5" transform="matrix(0.84, -0.55, 0.55, 0.84, 102.58, 87.63)">R</text>
      <text class="cls-5" transform="translate(108.5 83.71) rotate(-26.66)">O</text>
      <text class="cls-5" transform="translate(115.9 80.01) rotate(-19.86)">N</text>
      <text class="cls-5" transform="translate(123.21 77.41) rotate(-13.84)">T</text>
      <text class="cls-5" transform="matrix(0.99, -0.17, 0.17, 0.99, 129.43, 75.94)"></text>
      <text class="cls-5" transform="translate(132.35 75.37) rotate(-5.79)">E</text>
      <text class="cls-5" transform="translate(138.88 74.62) rotate(1)">N</text>
      <text class="cls-5" transform="translate(146.6 74.7) rotate(6.62)">D</text>
      <text class="cls-5" transform="matrix(0.98, 0.19, -0.19, 0.98, 154.23, 75.68)"></text>
      <text class="cls-5" transform="matrix(0.96, 0.27, -0.27, 0.96, 157.16, 76.16)">D</text>
      <text class="cls-5" transform="matrix(0.93, 0.37, -0.37, 0.93, 164.5, 78.25)">E</text>
      <text class="cls-5" transform="translate(170.62 80.67) rotate(27.65)">V</text>
      <text class="cls-5" transform="translate(177.11 84.09) rotate(33.54)">E</text>
      <text class="cls-5" transform="translate(182.59 87.74) rotate(38.88)">L</text>
      <text class="cls-5" transform="translate(187.05 91.24) rotate(44.61)">O</text>
      <text class="cls-5" transform="translate(192.93 97.11) rotate(50.84)">P</text>
      <text class="cls-5" transform="matrix(0.55, 0.83, -0.83, 0.55, 197.07, 102.18)">E</text>
      <text class="cls-5" transform="translate(200.72 107.66) rotate(62.17)">R</text>
      <text class="cls-6" transform="matrix(0.41, 0.91, -0.91, 0.41, 203.97, 114)"></text>
      <text class="cls-6" transform="translate(204.53 115.25) rotate(66.97)"></text>
      <text class="cls-6" transform="matrix(0.37, 0.93, -0.93, 0.37, 205.07, 116.53)"></text>
      <g class="cls-7">
        <g class="cls-8">
          <line class="cls-9" x1="152.76" y1="1.06" x2="1.06" y2="152.76"/>
          <line class="cls-9" x1="157.16" y1="5.46" x2="5.46" y2="157.16"/>
          <line class="cls-9" x1="161.56" y1="9.86" x2="9.86" y2="161.56"/>
          <line class="cls-9" x1="165.96" y1="14.26" x2="14.26" y2="165.96"/>
          <line class="cls-9" x1="170.36" y1="18.66" x2="18.66" y2="170.36"/>
          <line class="cls-9" x1="174.76" y1="23.06" x2="23.06" y2="174.76"/>
          <line class="cls-9" x1="179.16" y1="27.46" x2="27.46" y2="179.16"/>
          <line class="cls-9" x1="183.56" y1="31.86" x2="31.86" y2="183.56"/>
          <line class="cls-9" x1="187.96" y1="36.26" x2="36.26" y2="187.96"/>
          <line class="cls-9" x1="192.37" y1="40.66" x2="40.66" y2="192.37"/>
          <line class="cls-9" x1="196.77" y1="45.06" x2="45.06" y2="196.77"/>
          <line class="cls-9" x1="201.17" y1="49.46" x2="49.46" y2="201.17"/>
          <line class="cls-9" x1="205.57" y1="53.86" x2="53.86" y2="205.57"/>
          <line class="cls-9" x1="209.97" y1="58.26" x2="58.26" y2="209.97"/>
          <line class="cls-9" x1="214.37" y1="62.66" x2="62.66" y2="214.37"/>
          <line class="cls-9" x1="218.77" y1="67.07" x2="67.07" y2="218.77"/>
          <line class="cls-9" x1="223.55" y1="71.84" x2="71.84" y2="223.55"/>
          <line class="cls-9" x1="227.95" y1="76.24" x2="76.24" y2="227.95"/>
          <line class="cls-9" x1="232.35" y1="80.64" x2="80.64" y2="232.35"/>
          <line class="cls-9" x1="236.75" y1="85.04" x2="85.04" y2="236.75"/>
          <line class="cls-9" x1="241.15" y1="89.44" x2="89.44" y2="241.15"/>
          <line class="cls-9" x1="245.55" y1="93.85" x2="93.85" y2="245.55"/>
          <line class="cls-9" x1="249.95" y1="98.25" x2="98.25" y2="249.95"/>
          <line class="cls-9" x1="254.35" y1="102.65" x2="102.65" y2="254.35"/>
          <line class="cls-9" x1="258.75" y1="107.05" x2="107.05" y2="258.75"/>
          <line class="cls-9" x1="263.15" y1="111.45" x2="111.45" y2="263.15"/>
          <line class="cls-9" x1="267.55" y1="115.85" x2="115.85" y2="267.55"/>
          <line class="cls-9" x1="271.95" y1="120.25" x2="120.25" y2="271.95"/>
          <line class="cls-9" x1="276.35" y1="124.65" x2="124.65" y2="276.35"/>
          <line class="cls-9" x1="280.75" y1="129.05" x2="129.05" y2="280.75"/>
          <line class="cls-9" x1="285.15" y1="133.45" x2="133.45" y2="285.15"/>
          <line class="cls-9" x1="289.55" y1="137.85" x2="137.85" y2="289.55"/>
        </g>
      </g>
      <polygon class="cls-10" points="134.38 193.78 142.9 187.38 151.41 193.79 148.16 183.44 156.68 177.07 146.15 177.07 142.9 166.71 139.64 177.07 129.11 177.07 137.63 183.44 134.38 193.78"/>
      <polygon class="cls-10" points="164.29 209.13 164.29 197.08 143 208.3 121.66 197.08 121.66 209.1 143 220.75 164.29 209.13"/>
      <polygon class="cls-10" points="164.29 197.3 164.29 185.25 143 196.47 121.66 185.25 121.66 197.27 143 208.92 164.29 197.3"/>
      <polygon class="cls-10" points="164.29 220.97 164.29 208.92 143 220.14 121.66 208.92 121.66 220.94 143 232.59 164.29 220.97"/>
      <polygon class="cls-10" points="121.66 204.56 91.43 204.56 83.43 196.79 121.66 196.79 121.66 204.56"/>
      <polygon class="cls-10" points="121.66 212.7 99.79 212.7 91.79 204.93 121.66 204.93 121.66 212.7"/>
      <polygon class="cls-10" points="121.66 220.78 108.11 220.78 100.11 213.01 121.66 213.01 121.66 220.78"/>
      <polygon class="cls-10" points="164.29 204.59 193.89 204.59 201.73 196.82 164.29 196.82 164.29 204.59"/>
      <polygon class="cls-10" points="164.3 212.73 185.71 212.73 193.54 204.96 164.29 204.96 164.3 212.73"/>
      <polygon class="cls-10" points="164.3 220.81 177.56 220.81 185.39 213.04 164.29 213.04 164.3 220.81"/>
      <path class="cls-4" d="M138.73,164,132,161.57c4.81-13.52,9.6-27,14.41-40.54l6.72,2.39Z"/>
      <path class="cls-4" d="M107.07,142.63l15.15-15.14,4.91,4.93L116.94,142.6l10.28,10.27-5,4.95Z"/>
      <path class="cls-4" d="M157.82,132.46l5-5,15.15,15.15-15.13,15.14-4.88-4.88,10.19-10.18Z"/>
    </g>
  </g>
</svg>
