<svg xmlns="http://www.w3.org/2000/svg" 
  xmlns:xlink="http://www.w3.org/1999/xlink" viewBox="0 0 294.83 294.83">
  <defs>
    <style>.cls-1,.cls-8{fill:none;}.cls-2,.cls-9{fill:#ec008c;}.cls-3{fill:#fff;}.cls-4{font-size:9.96px;font-family:Gotham-Bold, Gotham;}.cls-4,.cls-5{fill:#474250;font-weight:700;}.cls-5{font-size:7.34px;font-family:SerranoPro-Bold, Serrano Pro;}.cls-6{opacity:0.3;}.cls-7{clip-path:url(#clip-path);}.cls-8,.cls-9{stroke:#fff;stroke-miterlimit:10;}.cls-8{stroke-width:3px;}.cls-9{stroke-width:1.5px;}</style>
    <clipPath id="clip-path">
      <circle id="SVGID" class="cls-1" cx="144.57" cy="144.57" r="59.69"/>
    </clipPath>
  </defs>
  <title>Asset 185</title>
  <g id="Layer_2" data-name="Layer 2">
    <g id="Layer_7" data-name="Layer 7">
      <circle id="SVGID-2" data-name="SVGID" class="cls-2" cx="144.65" cy="144.49" r="92.06"/>
      <circle id="SVGID-3" data-name="SVGID" class="cls-3" cx="144.65" cy="144.57" r="83.76"/>
      <circle id="SVGID-4" data-name="SVGID" class="cls-2" cx="144.65" cy="144.49" r="61.71"/>
      <circle id="SVGID-5" data-name="SVGID" class="cls-1" cx="144.65" cy="144.49" r="58.83"/>
      <text class="cls-4" transform="translate(89.7 103.1) rotate(-49.88)">H</text>
      <text class="cls-4" transform="matrix(0.72, -0.7, 0.7, 0.72, 94.57, 97.35)">T</text>
      <text class="cls-4" transform="matrix(0.79, -0.61, 0.61, 0.79, 99.16, 92.83)">M</text>
      <text class="cls-4" transform="translate(106.02 87.6) rotate(-31.58)">L</text>
      <text class="cls-4" transform="translate(111.34 84.39) rotate(-27.69)"></text>
      <text class="cls-4" transform="matrix(0.91, -0.41, 0.41, 0.91, 114.01, 82.95)">/</text>
      <text class="cls-4" transform="matrix(0.94, -0.35, 0.35, 0.94, 118.89, 80.8)"></text>
      <text class="cls-4" transform="matrix(0.96, -0.28, 0.28, 0.96, 121.69, 79.66)">C</text>
      <text class="cls-4" transform="translate(128.76 77.61) rotate(-10.71)">S</text>
      <text class="cls-4" transform="translate(134.94 76.44) rotate(-5.51)">S</text>
      <text class="cls-4" transform="matrix(1, -0.03, 0.03, 1, 141.32, 75.88)"></text>
      <text class="cls-4" transform="matrix(1, 0.05, -0.05, 1, 144.33, 75.7)">D</text>
      <text class="cls-4" transform="matrix(0.99, 0.16, -0.16, 0.99, 152.09, 76.14)">E</text>
      <text class="cls-4" transform="matrix(0.97, 0.26, -0.26, 0.97, 158.66, 77.16)">V</text>
      <text class="cls-4" transform="translate(165.88 79.11) rotate(20.85)">E</text>
      <text class="cls-4" transform="translate(172.12 81.5) rotate(26.19)">L</text>
      <text class="cls-4" transform="matrix(0.85, 0.53, -0.53, 0.85, 177.32, 83.97)">O</text>
      <text class="cls-4" transform="translate(184.45 88.47) rotate(38.15)">P</text>
      <text class="cls-4" transform="translate(189.68 92.58) rotate(43.69)">E</text>
      <text class="cls-4" transform="matrix(0.65, 0.76, -0.76, 0.65, 194.53, 97.18)">R</text>
      <text class="cls-5" transform="translate(199.15 102.74) rotate(53.12)"></text>
      <text class="cls-5" transform="matrix(0.58, 0.81, -0.81, 0.58, 200, 103.87)"></text>
      <text class="cls-5" transform="matrix(0.57, 0.82, -0.82, 0.57, 200.81, 104.99)"></text>
      <g class="cls-6">
        <g class="cls-7">
          <line class="cls-8" x1="154.98" y1="1.06" x2="1.06" y2="154.98"/>
          <line class="cls-8" x1="159.45" y1="5.53" x2="5.53" y2="159.45"/>
          <line class="cls-8" x1="163.91" y1="9.99" x2="9.99" y2="163.91"/>
          <line class="cls-8" x1="168.38" y1="14.45" x2="14.45" y2="168.38"/>
          <line class="cls-8" x1="172.84" y1="18.92" x2="18.92" y2="172.84"/>
          <line class="cls-8" x1="177.3" y1="23.38" x2="23.38" y2="177.3"/>
          <line class="cls-8" x1="181.77" y1="27.85" x2="27.85" y2="181.77"/>
          <line class="cls-8" x1="186.23" y1="32.31" x2="32.31" y2="186.23"/>
          <line class="cls-8" x1="190.7" y1="36.78" x2="36.78" y2="190.7"/>
          <line class="cls-8" x1="195.16" y1="41.24" x2="41.24" y2="195.16"/>
          <line class="cls-8" x1="199.63" y1="45.71" x2="45.71" y2="199.63"/>
          <line class="cls-8" x1="204.09" y1="50.17" x2="50.17" y2="204.09"/>
          <line class="cls-8" x1="208.56" y1="54.64" x2="54.64" y2="208.56"/>
          <line class="cls-8" x1="213.02" y1="59.1" x2="59.1" y2="213.02"/>
          <line class="cls-8" x1="217.49" y1="63.57" x2="63.57" y2="217.49"/>
          <line class="cls-8" x1="221.95" y1="68.03" x2="68.03" y2="221.95"/>
          <line class="cls-8" x1="226.8" y1="72.88" x2="72.88" y2="226.8"/>
          <line class="cls-8" x1="231.26" y1="77.34" x2="77.34" y2="231.26"/>
          <line class="cls-8" x1="235.73" y1="81.81" x2="81.81" y2="235.73"/>
          <line class="cls-8" x1="240.19" y1="86.27" x2="86.27" y2="240.19"/>
          <line class="cls-8" x1="244.66" y1="90.74" x2="90.74" y2="244.66"/>
          <line class="cls-8" x1="249.12" y1="95.2" x2="95.2" y2="249.12"/>
          <line class="cls-8" x1="253.59" y1="99.67" x2="99.67" y2="253.59"/>
          <line class="cls-8" x1="258.05" y1="104.13" x2="104.13" y2="258.05"/>
          <line class="cls-8" x1="262.52" y1="108.6" x2="108.6" y2="262.52"/>
          <line class="cls-8" x1="266.98" y1="113.06" x2="113.06" y2="266.98"/>
          <line class="cls-8" x1="271.45" y1="117.53" x2="117.53" y2="271.45"/>
          <line class="cls-8" x1="275.91" y1="121.99" x2="121.99" y2="275.91"/>
          <line class="cls-8" x1="280.38" y1="126.45" x2="126.45" y2="280.38"/>
          <line class="cls-8" x1="284.84" y1="130.92" x2="130.92" y2="284.84"/>
          <line class="cls-8" x1="289.3" y1="135.38" x2="135.38" y2="289.3"/>
          <line class="cls-8" x1="293.77" y1="139.85" x2="139.85" y2="293.77"/>
        </g>
      </g>
      <polygon class="cls-9" points="165.96 203.54 165.96 191.49 144.67 202.71 123.33 191.49 123.33 203.51 144.67 215.16 165.96 203.54"/>
      <polygon class="cls-9" points="165.88 216.12 165.88 204.07 144.59 215.29 123.25 204.07 123.25 216.09 144.59 227.74 165.88 216.12"/>
      <path class="cls-3" d="M141,166l-6.71-2.39c4.8-13.52,9.59-27,14.41-40.53l6.71,2.38Z"/>
      <path class="cls-3" d="M109.39,144.62l15.15-15.14,4.91,4.94-10.19,10.17,10.28,10.27-5,4.95Z"/>
      <path class="cls-3" d="M160.14,134.45l5-4.95,15.14,15.14L165.1,159.79l-4.87-4.88,10.18-10.19Z"/>
    </g>
  </g>
</svg>
