<svg xmlns="http://www.w3.org/2000/svg" 
  xmlns:xlink="http://www.w3.org/1999/xlink" viewBox="0 0 294.83 294.83">
  <defs>
    <style>.cls-1,.cls-8{fill:none;}.cls-2,.cls-9{fill:#808285;}.cls-3{fill:#fff;}.cls-4{font-size:9.96px;font-family:Gotham-Bold, Gotham;}.cls-4,.cls-5{fill:#474250;font-weight:700;}.cls-5{font-size:7.34px;font-family:SerranoPro-Bold, Serrano Pro;}.cls-6{opacity:0.3;}.cls-7{clip-path:url(#clip-path);}.cls-8,.cls-9{stroke:#fff;stroke-miterlimit:10;}.cls-8{stroke-width:3px;}.cls-9{stroke-width:1.5px;}</style>
    <clipPath id="clip-path">
      <circle id="SVGID" class="cls-1" cx="144.57" cy="144.57" r="59.69"/>
    </clipPath>
  </defs>
  <title>Asset 187</title>
  <g id="Layer_2" data-name="Layer 2">
    <g id="Layer_7" data-name="Layer 7">
      <circle id="SVGID-2" data-name="SVGID" class="cls-2" cx="144.65" cy="144.49" r="92.06"/>
      <circle id="SVGID-3" data-name="SVGID" class="cls-3" cx="144.65" cy="144.57" r="83.76"/>
      <circle id="SVGID-4" data-name="SVGID" class="cls-2" cx="144.65" cy="144.49" r="61.71"/>
      <circle id="SVGID-5" data-name="SVGID" class="cls-1" cx="144.65" cy="144.49" r="58.83"/>
      <text class="cls-4" transform="translate(89.81 102.93) rotate(-49.62)">D</text>
      <text class="cls-4" transform="translate(94.87 97.03) rotate(-43.62)">E</text>
      <text class="cls-4" transform="translate(99.69 92.41) rotate(-37.71)">V</text>
      <text class="cls-4" transform="translate(105.59 87.88) rotate(-31.8)">E</text>
      <text class="cls-4" transform="translate(111.27 84.37) rotate(-26.4)">L</text>
      <text class="cls-4" transform="matrix(0.94, -0.35, 0.35, 0.94, 116.41, 81.73)">O</text>
      <text class="cls-4" transform="translate(124.32 78.81) rotate(-14.36)">P</text>
      <text class="cls-4" transform="translate(130.76 77.16) rotate(-8.9)">E</text>
      <text class="cls-4" transform="matrix(1, -0.05, 0.05, 1, 137.37, 76.11)">R</text>
      <text class="cls-4" transform="translate(144.57 75.8) rotate(1.17)"></text>
      <text class="cls-4" transform="translate(147.65 75.86) rotate(3.91)">I</text>
      <text class="cls-4" transform="matrix(0.99, 0.15, -0.15, 0.99, 151, 75.99)">N</text>
      <text class="cls-4" transform="translate(158.76 77.17) rotate(15.16)">D</text>
      <text class="cls-4" transform="translate(166.26 79.21) rotate(21.53)">U</text>
      <text class="cls-4" transform="matrix(0.89, 0.46, -0.46, 0.89, 173.24, 81.97)">C</text>
      <text class="cls-4" transform="translate(179.74 85.4) rotate(33.41)">T</text>
      <text class="cls-4" transform="matrix(0.79, 0.61, -0.61, 0.79, 185.13, 89.03)">I</text>
      <text class="cls-4" transform="matrix(0.74, 0.67, -0.67, 0.74, 187.86, 90.98)">O</text>
      <text class="cls-4" transform="translate(194.07 96.69) rotate(49.2)">N</text>
      <text class="cls-5" transform="translate(199.15 102.74) rotate(53.12)"></text>
      <text class="cls-5" transform="matrix(0.58, 0.81, -0.81, 0.58, 200, 103.87)"></text>
      <text class="cls-5" transform="matrix(0.57, 0.82, -0.82, 0.57, 200.81, 104.99)"></text>
      <g class="cls-6">
        <g class="cls-7">
          <line class="cls-8" x1="154.98" y1="1.06" x2="1.06" y2="154.98"/>
          <line class="cls-8" x1="159.45" y1="5.53" x2="5.53" y2="159.45"/>
          <line class="cls-8" x1="163.91" y1="9.99" x2="9.99" y2="163.91"/>
          <line class="cls-8" x1="168.38" y1="14.45" x2="14.45" y2="168.38"/>
          <line class="cls-8" x1="172.84" y1="18.92" x2="18.92" y2="172.84"/>
          <line class="cls-8" x1="177.3" y1="23.38" x2="23.38" y2="177.3"/>
          <line class="cls-8" x1="181.77" y1="27.85" x2="27.85" y2="181.77"/>
          <line class="cls-8" x1="186.23" y1="32.31" x2="32.31" y2="186.23"/>
          <line class="cls-8" x1="190.7" y1="36.78" x2="36.78" y2="190.7"/>
          <line class="cls-8" x1="195.16" y1="41.24" x2="41.24" y2="195.16"/>
          <line class="cls-8" x1="199.63" y1="45.71" x2="45.71" y2="199.63"/>
          <line class="cls-8" x1="204.09" y1="50.17" x2="50.17" y2="204.09"/>
          <line class="cls-8" x1="208.56" y1="54.64" x2="54.64" y2="208.56"/>
          <line class="cls-8" x1="213.02" y1="59.1" x2="59.1" y2="213.02"/>
          <line class="cls-8" x1="217.49" y1="63.57" x2="63.57" y2="217.49"/>
          <line class="cls-8" x1="221.95" y1="68.03" x2="68.03" y2="221.95"/>
          <line class="cls-8" x1="226.8" y1="72.88" x2="72.88" y2="226.8"/>
          <line class="cls-8" x1="231.26" y1="77.34" x2="77.34" y2="231.26"/>
          <line class="cls-8" x1="235.73" y1="81.81" x2="81.81" y2="235.73"/>
          <line class="cls-8" x1="240.19" y1="86.27" x2="86.27" y2="240.19"/>
          <line class="cls-8" x1="244.66" y1="90.74" x2="90.74" y2="244.66"/>
          <line class="cls-8" x1="249.12" y1="95.2" x2="95.2" y2="249.12"/>
          <line class="cls-8" x1="253.59" y1="99.67" x2="99.67" y2="253.59"/>
          <line class="cls-8" x1="258.05" y1="104.13" x2="104.13" y2="258.05"/>
          <line class="cls-8" x1="262.52" y1="108.6" x2="108.6" y2="262.52"/>
          <line class="cls-8" x1="266.98" y1="113.06" x2="113.06" y2="266.98"/>
          <line class="cls-8" x1="271.45" y1="117.53" x2="117.53" y2="271.45"/>
          <line class="cls-8" x1="275.91" y1="121.99" x2="121.99" y2="275.91"/>
          <line class="cls-8" x1="280.38" y1="126.45" x2="126.45" y2="280.38"/>
          <line class="cls-8" x1="284.84" y1="130.92" x2="130.92" y2="284.84"/>
          <line class="cls-8" x1="289.3" y1="135.38" x2="135.38" y2="289.3"/>
          <line class="cls-8" x1="293.77" y1="139.85" x2="139.85" y2="293.77"/>
        </g>
      </g>
      <polygon class="cls-9" points="165.96 203.54 165.96 191.49 144.67 202.71 123.33 191.49 123.33 203.51 144.67 215.16 165.96 203.54"/>
      <path class="cls-3" d="M150.09,120.27c.19,1.31.37,2.6.55,3.9.14,1,.27,2,.43,3a.65.65,0,0,0,.29.37c1.2.72,2.42,1.42,3.61,2.15a.52.52,0,0,0,.55,0l6.39-2.58.32-.13,5.93,10.32-2.78,2.18c-1,.76-1.95,1.53-2.94,2.29a.47.47,0,0,0-.22.5,13.24,13.24,0,0,1,0,4.12.46.46,0,0,0,.22.5q2.75,2.13,5.47,4.28l.25.2c-2,3.43-3.94,6.85-5.92,10.31l-.93-.36L155.52,159a.59.59,0,0,0-.61.08c-1.15.7-2.31,1.39-3.48,2a.65.65,0,0,0-.39.54c-.29,2.15-.6,4.31-.9,6.47,0,.09,0,.18-.07.29h-12c-.13-.84-.25-1.68-.37-2.52-.2-1.43-.41-2.86-.6-4.29a.62.62,0,0,0-.37-.49c-1.18-.65-2.35-1.33-3.5-2a.65.65,0,0,0-.68-.09l-6.35,2.58-.33.12L120,151.37l2.4-1.88,3.32-2.6a.48.48,0,0,0,.23-.5,12.88,12.88,0,0,1,0-4.11.49.49,0,0,0-.22-.51c-1.91-1.47-3.8-3-5.73-4.47L125.88,127l.34.12c2.13.86,4.26,1.71,6.38,2.58a.59.59,0,0,0,.61-.07q1.77-1.06,3.57-2.07a.53.53,0,0,0,.33-.44c.28-2,.57-4,.85-6,0-.26.08-.52.12-.81Zm-14.55,24a8.52,8.52,0,1,0,8.58-8.49A8.51,8.51,0,0,0,135.54,144.3Z"/>
    </g>
  </g>
</svg>
