<svg xmlns="http://www.w3.org/2000/svg" 
  xmlns:xlink="http://www.w3.org/1999/xlink" viewBox="0 0 290.61 290.61">
  <defs>
    <style>.cls-1,.cls-8{fill:none;}.cls-2,.cls-9{fill:#f7941d;}.cls-3{fill:#fff;}.cls-4{font-size:9.81px;font-family:Gotham-Bold, Gotham;}.cls-4,.cls-5{fill:#474250;font-weight:700;}.cls-5{font-size:7.23px;font-family:SerranoPro-Bold, Serrano Pro;}.cls-6{opacity:0.5;}.cls-7{clip-path:url(#clip-path);}.cls-8,.cls-9{stroke:#fff;stroke-miterlimit:10;}.cls-8{stroke-width:3px;}.cls-9{stroke-width:1.5px;}</style>
    <clipPath id="clip-path">
      <circle id="SVGID" class="cls-1" cx="142.5" cy="142.5" r="58.83"/>
    </clipPath>
  </defs>
  <title>Asset 177</title>
  <g id="Layer_2" data-name="Layer 2">
    <g id="Layer_7" data-name="Layer 7">
      <circle id="SVGID-2" data-name="SVGID" class="cls-2" cx="142.58" cy="142.42" r="92.06"/>
      <circle id="SVGID-3" data-name="SVGID" class="cls-3" cx="142.58" cy="142.5" r="81.14"/>
      <circle id="SVGID-4" data-name="SVGID" class="cls-2" cx="142.58" cy="142.42" r="61.71"/>
      <circle id="SVGID-5" data-name="SVGID" class="cls-1" cx="142.58" cy="142.42" r="58.83"/>
      <text class="cls-4" transform="matrix(0.67, -0.74, 0.74, 0.67, 90.22, 99.48)">P</text>
      <text class="cls-4" transform="translate(94.59 94.61) rotate(-42.16)">R</text>
      <text class="cls-4" transform="translate(99.82 89.83) rotate(-35.61)">O</text>
      <text class="cls-4" transform="translate(106.57 85.02) rotate(-28.83)">D</text>
      <text class="cls-4" transform="matrix(0.92, -0.38, 0.38, 0.92, 113.27, 81.34)">U</text>
      <text class="cls-4" transform="translate(120.11 78.52) rotate(-16.26)">C</text>
      <text class="cls-4" transform="matrix(0.98, -0.18, 0.18, 0.98, 127.04, 76.52)">T</text>
      <text class="cls-4" transform="translate(133.35 75.39) rotate(-6.52)">I</text>
      <text class="cls-4" transform="translate(136.64 74.91) rotate(-1.56)">O</text>
      <text class="cls-4" transform="translate(144.93 74.7) rotate(5.26)">N</text>
      <text class="cls-4" transform="translate(152.67 75.51) rotate(9.85)"></text>
      <text class="cls-4" transform="matrix(0.97, 0.24, -0.24, 0.97, 155.59, 75.96)">S</text>
      <text class="cls-4" transform="translate(161.7 77.43) rotate(19.58)">U</text>
      <text class="cls-4" transform="matrix(0.9, 0.43, -0.43, 0.9, 168.67, 79.93)">P</text>
      <text class="cls-4" transform="translate(174.58 82.75) rotate(30.98)">P</text>
      <text class="cls-4" transform="translate(180.2 86.06) rotate(37.22)">O</text>
      <text class="cls-4" transform="translate(186.81 91.13) rotate(43.72)">R</text>
      <text class="cls-4" transform="translate(191.92 96.03) rotate(49.41)">T</text>
      <text class="cls-5" transform="translate(196.03 100.94) rotate(52.74)"></text>
      <text class="cls-5" transform="matrix(0.59, 0.81, -0.81, 0.59, 196.85, 102.02)"></text>
      <text class="cls-5" transform="matrix(0.57, 0.82, -0.82, 0.57, 197.67, 103.15)"></text>
      <g class="cls-6">
        <g class="cls-7">
          <line class="cls-8" x1="152.76" y1="1.06" x2="1.06" y2="152.76"/>
          <line class="cls-8" x1="157.16" y1="5.46" x2="5.46" y2="157.16"/>
          <line class="cls-8" x1="161.56" y1="9.86" x2="9.86" y2="161.56"/>
          <line class="cls-8" x1="165.96" y1="14.26" x2="14.26" y2="165.96"/>
          <line class="cls-8" x1="170.36" y1="18.66" x2="18.66" y2="170.36"/>
          <line class="cls-8" x1="174.76" y1="23.06" x2="23.06" y2="174.76"/>
          <line class="cls-8" x1="179.16" y1="27.46" x2="27.46" y2="179.16"/>
          <line class="cls-8" x1="183.56" y1="31.86" x2="31.86" y2="183.56"/>
          <line class="cls-8" x1="187.96" y1="36.26" x2="36.26" y2="187.96"/>
          <line class="cls-8" x1="192.37" y1="40.66" x2="40.66" y2="192.37"/>
          <line class="cls-8" x1="196.77" y1="45.06" x2="45.06" y2="196.77"/>
          <line class="cls-8" x1="201.17" y1="49.46" x2="49.46" y2="201.17"/>
          <line class="cls-8" x1="205.57" y1="53.86" x2="53.86" y2="205.57"/>
          <line class="cls-8" x1="209.97" y1="58.26" x2="58.26" y2="209.97"/>
          <line class="cls-8" x1="214.37" y1="62.66" x2="62.66" y2="214.37"/>
          <line class="cls-8" x1="218.77" y1="67.07" x2="67.07" y2="218.77"/>
          <line class="cls-8" x1="223.55" y1="71.84" x2="71.84" y2="223.55"/>
          <line class="cls-8" x1="227.95" y1="76.24" x2="76.24" y2="227.95"/>
          <line class="cls-8" x1="232.35" y1="80.64" x2="80.64" y2="232.35"/>
          <line class="cls-8" x1="236.75" y1="85.04" x2="85.04" y2="236.75"/>
          <line class="cls-8" x1="241.15" y1="89.44" x2="89.44" y2="241.15"/>
          <line class="cls-8" x1="245.55" y1="93.85" x2="93.85" y2="245.55"/>
          <line class="cls-8" x1="249.95" y1="98.25" x2="98.25" y2="249.95"/>
          <line class="cls-8" x1="254.35" y1="102.65" x2="102.65" y2="254.35"/>
          <line class="cls-8" x1="258.75" y1="107.05" x2="107.05" y2="258.75"/>
          <line class="cls-8" x1="263.15" y1="111.45" x2="111.45" y2="263.15"/>
          <line class="cls-8" x1="267.55" y1="115.85" x2="115.85" y2="267.55"/>
          <line class="cls-8" x1="271.95" y1="120.25" x2="120.25" y2="271.95"/>
          <line class="cls-8" x1="276.35" y1="124.65" x2="124.65" y2="276.35"/>
          <line class="cls-8" x1="280.75" y1="129.05" x2="129.05" y2="280.75"/>
          <line class="cls-8" x1="285.15" y1="133.45" x2="133.45" y2="285.15"/>
          <line class="cls-8" x1="289.55" y1="137.85" x2="137.85" y2="289.55"/>
        </g>
      </g>
      <polygon class="cls-9" points="163.9 201 163.9 188.95 142.6 200.17 121.26 188.95 121.26 200.97 142.6 212.62 163.9 201"/>
      <path class="cls-3" d="M165.5,112.72l9.22,6.14-35.8,53.71-28.29-21.46,6.7-8.83,18.9,14.34Z"/>
    </g>
  </g>
</svg>
